<svg xmlns="http://www.w3.org/2000/svg" width="1600" height="1200" viewBox="0 0 1600 1200">
 <defs>
  <linearGradient id="sky" x1="0" y1="0" x2="0" y2="1"><stop offset="0" stop-color="#f3b27a"/><stop offset=".55" stop-color="#f8d6a8"/><stop offset="1" stop-color="#cfe3ea"/></linearGradient>
  <linearGradient id="river" x1="0" y1="0" x2="0" y2="1"><stop offset="0" stop-color="#7fb2c7"/><stop offset="1" stop-color="#3f7f9a"/></linearGradient>
 </defs>
 <rect width="1600" height="1200" fill="url(#sky)"/>
 <circle cx="330" cy="300" r="80" fill="#fff0cf" opacity=".85"/>
 <rect y="430" width="1600" height="150" fill="url(#river)"/>
 <path d="M880 470 L1600 450 L1600 470 L880 486Z" fill="#b5463b" opacity=".8"/>
 <g fill="#9f4538"><rect x="990" y="380" width="14" height="96"/><rect x="1330" y="370" width="14" height="96"/></g>
 <path d="M997 380 Q1170 470 1337 370" stroke="#9f4538" stroke-width="6" fill="none"/>
 <g transform="translate(0 540)">
  <path d="M0 120 H1600 V660 H0Z" fill="#e9dcc5"/>
  <g>
   <rect x="40" y="60" width="240" height="260" fill="#f4e7cf"/><polygon points="20,70 160,0 300,70" fill="#c65b3d"/>
   <rect x="300" y="110" width="220" height="240" fill="#f2c94c"/><polygon points="285,120 410,50 535,120" fill="#b84e33"/>
   <rect x="540" y="40" width="260" height="300" fill="#fbf6ec"/><polygon points="520,50 670,-30 820,50" fill="#c65b3d"/>
   <rect x="820" y="100" width="240" height="260" fill="#7fb7c8"/><polygon points="805,110 940,40 1075,110" fill="#a84a31"/>
   <rect x="1080" y="70" width="250" height="280" fill="#f7e2d0"/><polygon points="1060,80 1205,5 1350,80" fill="#c65b3d"/>
   <rect x="1350" y="120" width="240" height="240" fill="#e8b4a0"/><polygon points="1335,130 1470,60 1605,130" fill="#b84e33"/>
  </g>
  <g fill="#2f5d73">
   <rect x="80" y="130" width="46" height="66"/><rect x="190" y="130" width="46" height="66"/><rect x="80" y="230" width="46" height="66"/>
   <rect x="340" y="170" width="46" height="66"/><rect x="430" y="170" width="46" height="66"/>
   <rect x="590" y="110" width="50" height="70"/><rect x="700" y="110" width="50" height="70"/><rect x="590" y="220" width="50" height="70"/><rect x="700" y="220" width="50" height="70"/>
   <rect x="870" y="170" width="46" height="66"/><rect x="960" y="170" width="46" height="66"/>
   <rect x="1120" y="140" width="50" height="70"/><rect x="1230" y="140" width="50" height="70"/><rect x="1120" y="250" width="50" height="70"/>
   <rect x="1400" y="190" width="46" height="66"/><rect x="1490" y="190" width="46" height="66"/>
  </g>
  <path d="M0 360 H1600 V660 H0Z" fill="#d8c7a6"/>
  <g fill="#f1c232"><rect x="560" y="330" width="300" height="130" rx="30"/></g>
  <g fill="#fff8e1"><rect x="585" y="350" width="60" height="50" rx="8"/><rect x="665" y="350" width="60" height="50" rx="8"/><rect x="745" y="350" width="60" height="50" rx="8"/></g>
  <g fill="#333"><circle cx="620" cy="465" r="18"/><circle cx="800" cy="465" r="18"/></g>
  <path d="M0 482 H1600" stroke="#9a8866" stroke-width="6"/>
 </g>
</svg>
